HIERARCHY
ROOT hip
{
  OFFSET 0 0 0
  CHANNELS 6 Xposition Yposition Zposition Zrotation Yrotation Xrotation
  JOINT abdomen
  {
    OFFSET 0 20.6881 -0.73152
    CHANNELS 3 Zrotation Xrotation Yrotation
    JOINT chest
    {
      OFFSET 0 11.7043 -0.48768
      CHANNELS 3 Zrotation Xrotation Yrotation
      JOINT neck
      {
        OFFSET 0 22.1894 -2.19456
        CHANNELS 3 Zrotation Xrotation Yrotation
        JOINT head
        {
          OFFSET -0.24384 7.07133 1.2192
          CHANNELS 3 Zrotation Xrotation Yrotation
          JOINT leftEye
          {
            OFFSET 4.14528 8.04674 8.04672
            CHANNELS 3 Zrotation Xrotation Yrotation
            End Site
            {
              OFFSET 1 0 0
            }
          }
          JOINT rightEye
          {
            OFFSET -3.6576 8.04674 8.04672
            CHANNELS 3 Zrotation Xrotation Yrotation
            End Site
            {
              OFFSET 1 0 0
            }
          }
        }
      }
      JOINT rCollar
      {
        OFFSET -2.68224 19.2634 -4.8768
        CHANNELS 3 Zrotation Xrotation Yrotation
        JOINT rShldr
        {
          OFFSET -8.77824 -1.95073 1.46304
          CHANNELS 3 Zrotation Xrotation Yrotation
          JOINT rForeArm
          {
            OFFSET -28.1742 -1.7115 0.48768
            CHANNELS 3 Zrotation Xrotation Yrotation
            JOINT rHand
            {
              OFFSET -22.5879 0.773209 7.07136
              CHANNELS 3 Zrotation Xrotation Yrotation
              JOINT rThumb1
              {
                OFFSET -1.2192 -0.487915 3.41376
                CHANNELS 3 Zrotation Xrotation Yrotation
                JOINT rThumb2
                {
                  OFFSET -3.37035 -0.52449 3.41376
                  CHANNELS 3 Zrotation Xrotation Yrotation
                  End Site
                  {
                    OFFSET -1.78271 -1.18214 1.43049
                  }
                }
              }
              JOINT rIndex1
              {
                OFFSET -7.75947 0.938293 5.60832
                CHANNELS 3 Zrotation Xrotation Yrotation
                JOINT rIndex2
                {
                  OFFSET -2.54057 -0.884171 1.56538
                  CHANNELS 3 Zrotation Xrotation Yrotation
                  End Site
                  {
                    OFFSET -1.62519 -0.234802 1.16502
                  }
                }
              }
              JOINT rMid1
              {
                OFFSET -8.24714 1.18213 3.41376
                CHANNELS 3 Zrotation Xrotation Yrotation
                JOINT rMid2
                {
                  OFFSET -3.10165 -0.590103 1.0647
                  CHANNELS 3 Zrotation Xrotation Yrotation
                  End Site
                  {
                    OFFSET -2.48547 -0.328903 0.83742
                  }
                }
              }
              JOINT rRing1
              {
                OFFSET -8.82822 0.546677 1.51678
                CHANNELS 3 Zrotation Xrotation Yrotation
                JOINT rRing2
                {
                  OFFSET -2.60934 -0.819778 -0.0198488
                  CHANNELS 3 Zrotation Xrotation Yrotation
                  End Site
                  {
                    OFFSET -2.33842 -0.294052 0.168128
                  }
                }
              }
              JOINT rPinky1
              {
                OFFSET -8.27202 -0.0477905 -0.4584
                CHANNELS 3 Zrotation Xrotation Yrotation
                JOINT rPinky2
                {
                  OFFSET -1.82734 -0.647385 -0.700984
                  CHANNELS 3 Zrotation Xrotation Yrotation
                  End Site
                  {
                    OFFSET -1.69225 -0.51767 -0.607171
                  }
                }
              }
            }
          }
        }
      }
      JOINT lCollar
      {
        OFFSET 2.68224 19.2634 -4.8768
        CHANNELS 3 Zrotation Xrotation Yrotation
        JOINT lShldr
        {
          OFFSET 8.77824 -1.95073 1.46304
          CHANNELS 3 Zrotation Xrotation Yrotation
          JOINT lForeArm
          {
            OFFSET 28.1742 -1.7115 0.48768
            CHANNELS 3 Zrotation Xrotation Yrotation
            JOINT lHand
            {
              OFFSET 22.5879 0.773209 7.07136
              CHANNELS 3 Zrotation Xrotation Yrotation
              JOINT lThumb1
              {
                OFFSET 1.2192 -0.487915 3.41376
                CHANNELS 3 Zrotation Xrotation Yrotation
                JOINT lThumb2
                {
                  OFFSET 3.37035 -0.52449 3.41376
                  CHANNELS 3 Zrotation Xrotation Yrotation
                  End Site
                  {
                    OFFSET 1.78271 -1.18214 1.43049
                  }
                }
              }
              JOINT lIndex1
              {
                OFFSET 7.75947 0.938293 5.60832
                CHANNELS 3 Zrotation Xrotation Yrotation
                JOINT lIndex2
                {
                  OFFSET 2.54057 -0.884171 1.56538
                  CHANNELS 3 Zrotation Xrotation Yrotation
                  End Site
                  {
                    OFFSET 1.62519 -0.234802 1.16502
                  }
                }
              }
              JOINT lMid1
              {
                OFFSET 8.24714 1.18213 3.41376
                CHANNELS 3 Zrotation Xrotation Yrotation
                JOINT lMid2
                {
                  OFFSET 3.10165 -0.590103 1.0647
                  CHANNELS 3 Zrotation Xrotation Yrotation
                  End Site
                  {
                    OFFSET 2.48547 -0.328903 0.83742
                  }
                }
              }
              JOINT lRing1
              {
                OFFSET 8.82822 0.546677 1.51678
                CHANNELS 3 Zrotation Xrotation Yrotation
                JOINT lRing2
                {
                  OFFSET 2.60934 -0.819778 -0.0198488
                  CHANNELS 3 Zrotation Xrotation Yrotation
                  End Site
                  {
                    OFFSET 2.33842 -0.294052 0.168128
                  }
                }
              }
              JOINT lPinky1
              {
                OFFSET 8.27202 -0.0477905 -0.4584
                CHANNELS 3 Zrotation Xrotation Yrotation
                JOINT lPinky2
                {
                  OFFSET 1.82734 -0.647385 -0.700984
                  CHANNELS 3 Zrotation Xrotation Yrotation
                  End Site
                  {
                    OFFSET 1.69225 -0.51767 -0.607171
                  }
                }
              }
            }
          }
        }
      }
    }
  }
  JOINT rButtock
  {
    OFFSET -8.77824 4.35084 1.2192
    CHANNELS 3 Zrotation Xrotation Yrotation
    JOINT rThigh
    {
      OFFSET 0 -1.70687 -2.19456
      CHANNELS 3 Zrotation Xrotation Yrotation
      JOINT rShin
      {
        OFFSET 0 -36.8199 0.73152
        CHANNELS 3 Zrotation Xrotation Yrotation
        JOINT rFoot
        {
          OFFSET 0.73152 -45.1104 -5.12064
          CHANNELS 3 Zrotation Xrotation Yrotation
          End Site
          {
            OFFSET -1.1221 -3.69964 12.103
          }
        }
      }
    }
  }
  JOINT lButtock
  {
    OFFSET 8.77824 4.35084 1.2192
    CHANNELS 3 Zrotation Xrotation Yrotation
    JOINT lThigh
    {
      OFFSET 0 -1.70687 -2.19456
      CHANNELS 3 Zrotation Xrotation Yrotation
      JOINT lShin
      {
        OFFSET 0 -36.8199 0.73152
        CHANNELS 3 Zrotation Xrotation Yrotation
        JOINT lFoot
        {
          OFFSET -0.73152 -45.1104 -5.12064
          CHANNELS 3 Zrotation Xrotation Yrotation
          End Site
          {
            OFFSET 1.1221 -3.69964 12.103
          }
        }
      }
    }
  }
}
MOTION
Frames:	8
Frame Time:	0.00833333
249.103 84.7658 26.7021 0.0 0.0 0.0 -0.385197 -0.00168813 -0.0109959 -0.106234 -0.00256711 -0.0184049 8.11666e-15 0.0 5.59082e-17 2.43139e-14 3.18055e-15 1.33558e-16 -0.0 0.0 0.0 -0.0 0.0 0.0 4.12362e-15 4.46489e-18 2.48481e-16 8.70577e-14 4.16205e-16 1.78906e-15 1.47096e-12 -4.37525e-13 -2.54444e-14 1.68252e-11 4.52508e-13 1.24042e-13 3.96885e-11 2.62368e-14 2.35361e-13 6.85247e-11 4.13472e-14 3.95979e-13 3.96941e-11 2.82274e-14 2.16278e-13 7.73091 5.47488 0.417314 3.96882e-11 2.68359e-14 2.3218e-13 2.90554 0.965183 0.102902 3.96915e-11 2.64384e-14 2.32976e-13 10.2786 0.731801 0.0259123 3.96846e-11 2.74323e-14 2.44903e-13 2.22167 -0.733487 -0.20892 3.92743e-15 4.07664e-18 -1.49089e-16 8.39499e-14 5.2181e-16 0.0 1.46877e-12 4.42495e-13 1.59028e-14 1.68244e-11 -4.29971e-13 9.85972e-14 3.96856e-11 1.93097e-14 2.38542e-13 6.85473e-11 3.18055e-14 4.13472e-13 3.96806e-11 2.06736e-14 2.57625e-13 -7.73091 5.47488 -0.417314 3.96865e-11 1.88845e-14 2.38542e-13 -2.90554 0.965183 -0.102902 3.96799e-11 1.93815e-14 2.37746e-13 -10.2786 0.731801 -0.0259123 3.96931e-11 2.26615e-14 2.29e-13 -2.22167 -0.733487 0.20892 -2.03217e-16 0.0 -3.88251e-19 0.221662 -2.58356 -0.0280812 -0.00748967 -0.872632 -0.0651408 -0.513123 3.45577 0.129349 2.03217e-16 0.0 3.88251e-19 -0.807763 -4.07085 0.0653909 0.00325567 1.82139 0.0244312 0.517699 2.24911 -0.105179
246.257 82.8758 19.7314 -113.187 -84.5356 125.267 1.98696 -1.20512 0.328701 0.377481 0.225125 0.0397843 -1.64166 -0.95727 0.00299807 2.20556 -2.13871 0.702081 -0.0 0.0 0.0 -0.0 0.0 0.0 1.64116e-14 1.45462e-13 -1.565e-14 20.3811 6.30392 2.07501 -3.77683 -1.63621 5.98325 0.0339834 4.0927 0.56991 4.78496e-10 3.80394e-10 -1.26009e-09 8.11578e-10 6.55103e-10 -2.18332e-09 4.78502e-10 3.80396e-10 -1.26011e-09 7.73091 5.47488 0.417314 4.78495e-10 3.80395e-10 -1.26009e-09 2.90554 0.965183 0.102902 4.785e-10 3.80394e-10 -1.26009e-09 10.2786 0.731801 0.0259123 4.78493e-10 3.80394e-10 -1.26008e-09 2.22167 -0.733487 -0.20892 1.62499e-14 1.45465e-13 -1.60033e-14 -23.4758 0.863547 0.137204 3.85677 -1.68589 -6.09418 -0.124337 7.83577 -1.06442 -8.58398e-10 6.48825e-10 7.91897e-10 -1.46594e-09 1.12452e-09 1.38736e-09 -8.58406e-10 6.48826e-10 7.91914e-10 -7.73091 5.47488 -0.417314 -8.58399e-10 6.48823e-10 7.91897e-10 -2.90554 0.965183 -0.102902 -8.58406e-10 6.48825e-10 7.91898e-10 -10.2786 0.731801 -0.0259123 -8.58393e-10 6.48827e-10 7.91893e-10 -2.22167 -0.733487 0.20892 -2.03217e-16 0.0 -3.88251e-19 2.75053 -6.07273 0.272758 0.00572403 3.97869 0.031033 -0.767236 -0.126778 -3.71023 2.03217e-16 0.0 3.88251e-19 1.94448 -10.4577 0.147731 -0.00172009 11.1843 -0.120748 0.675904 -0.819094 1.70516
246.232 82.8433 19.6638 -111.24 -84.5407 123.333 4.50075 -2.49221 0.686911 0.888369 0.466484 0.100586 -3.37714 -1.97032 0.0058472 4.59293 -4.38429 1.44575 -0.0 0.0 0.0 -0.0 0.0 0.0 2.896e-14 3.24944e-13 -3.38151e-14 41.4284 12.909 4.35124 -7.38576 -3.29672 12.3018 -0.0195751 8.43131 1.18402 9.7328e-10 7.9997e-10 -2.63845e-09 1.64992e-09 1.37777e-09 -4.57175e-09 9.73286e-10 7.99972e-10 -2.63846e-09 7.73091 5.47488 0.417314 9.73279e-10 7.99971e-10 -2.63845e-09 2.90554 0.965183 0.102902 9.73285e-10 7.9997e-10 -2.63845e-09 10.2786 0.731801 0.0259123 9.73277e-10 7.9997e-10 -2.63844e-09 2.22167 -0.733487 -0.20892 2.88323e-14 3.2495e-13 -3.41195e-14 -48.2975 1.75703 0.28614 7.54136 -3.40114 -12.5456 0.0725876 16.1185 -2.25909 -1.83606e-09 1.36183e-09 1.66905e-09 -3.13609e-09 2.36012e-09 2.92371e-09 -1.83607e-09 1.36183e-09 1.66907e-09 -7.73091 5.47488 -0.417314 -1.83607e-09 1.36183e-09 1.66905e-09 -2.90554 0.965183 -0.102902 -1.83607e-09 1.36183e-09 1.66905e-09 -10.2786 0.731801 -0.0259123 -1.83606e-09 1.36184e-09 1.66905e-09 -2.22167 -0.733487 0.20892 -2.03217e-16 0.0 -3.88251e-19 5.45274 -9.75794 0.596469 0.00161335 9.09152 0.133758 -1.55481 -3.86335 -7.77999 2.03217e-16 0.0 3.88251e-19 4.86096 -17.1508 0.22833 0.047421 20.9908 -0.28764 1.05659 -4.08127 3.63597
246.197 82.7929 19.6012 -109.395 -84.5593 121.488 6.77415 -3.61149 1.00988 1.34352 0.680507 0.156173 -4.92467 -2.87181 0.00900427 6.77473 -6.41225 2.11803 -0.0 0.0 0.0 -0.0 0.0 0.0 4.09877e-14 4.36377e-13 -4.7447e-14 59.711 18.8097 6.53794 -10.321 -4.69491 18.0049 -0.147128 12.2732 1.74527 1.35611e-09 1.14113e-09 -3.78074e-09 2.29768e-09 1.96523e-09 -6.55076e-09 1.35612e-09 1.14113e-09 -3.78076e-09 7.73091 5.47488 0.417314 1.35611e-09 1.14113e-09 -3.78074e-09 2.90554 0.965183 0.102902 1.35612e-09 1.14113e-09 -3.78074e-09 10.2786 0.731801 0.0259123 1.35611e-09 1.14113e-09 -3.78074e-09 2.22167 -0.733487 -0.20892 4.08948e-14 4.36386e-13 -4.77118e-14 -70.44 2.59058 0.411985 10.5115 -4.82923 -18.342 0.566872 23.4733 -3.44917 -2.65456e-09 1.94644e-09 2.37522e-09 -4.53491e-09 3.3735e-09 4.16124e-09 -2.65458e-09 1.94644e-09 2.37523e-09 -7.73091 5.47488 -0.417314 -2.65457e-09 1.94643e-09 2.37522e-09 -2.90554 0.965183 -0.102902 -2.65458e-09 1.94644e-09 2.37522e-09 -10.2786 0.731801 -0.0259123 -2.65456e-09 1.94644e-09 2.37522e-09 -2.22167 -0.733487 0.20892 -2.03217e-16 0.0 -3.88251e-19 7.92078 -13.0497 0.892849 -0.0176918 13.6812 0.229657 -2.71398 -7.14834 -11.4793 2.03217e-16 0.0 3.88251e-19 7.5089 -23.2312 0.332324 0.149031 29.9094 -0.466308 1.57621 -6.92642 5.36441
246.15 82.7367 19.5273 -107.199 -84.5422 119.283 8.41568 -4.31175 1.24296 1.6603 0.826187 0.198713 -6.00251 -3.4944 0.012924 8.33315 -7.89977 2.60105 -0.0 0.0 0.0 -0.0 0.0 0.0 5.17135e-14 3.77686e-13 -4.97459e-14 72.0983 23.0445 8.21232 -12.2622 -5.63417 22.1185 -0.279418 14.878 2.13976 1.45906e-09 1.28624e-09 -4.33289e-09 2.46899e-09 2.21468e-09 -7.5062e-09 1.45907e-09 1.28625e-09 -4.3329e-09 7.73091 5.47488 0.417314 1.45906e-09 1.28625e-09 -4.33289e-09 2.90554 0.965183 0.102902 1.45907e-09 1.28625e-09 -4.33289e-09 10.2786 0.731801 0.0259123 1.45906e-09 1.28624e-09 -4.33289e-09 2.22167 -0.733487 -0.20892 5.16579e-14 3.77696e-13 -4.99943e-14 -85.8756 3.27435 0.479756 12.4297 -5.75453 -22.4447 1.11551 28.5408 -4.3838 -3.07516e-09 2.21002e-09 2.6539e-09 -5.2554e-09 3.83132e-09 4.65172e-09 -3.07518e-09 2.21002e-09 2.65391e-09 -7.73091 5.47488 -0.417314 -3.07517e-09 2.21001e-09 2.6539e-09 -2.90554 0.965183 -0.102902 -3.07518e-09 2.21002e-09 2.6539e-09 -10.2786 0.731801 -0.0259123 -3.07516e-09 2.21002e-09 2.6539e-09 -2.22167 -0.733487 0.20892 -2.03217e-16 0.0 -3.88251e-19 9.72311 -15.3592 1.10454 -0.0401524 16.9633 0.302215 -3.80197 -9.44992 -14.1482 2.03217e-16 0.0 3.88251e-19 9.45823 -27.7801 0.484141 0.2694 36.6091 -0.627536 2.01795 -8.75998 6.54182
246.108 82.6794 19.4546 -105.641 -84.5117 117.692 9.16074 -4.42493 1.34821 1.78664 0.874677 0.22273 -6.43184 -3.73562 0.0180798 8.99095 -8.61833 2.81649 -0.0 0.0 0.0 -0.0 0.0 0.0 6.84203e-14 -7.44341e-14 -2.92831e-14 76.7334 25.0166 8.9529 -13.1022 -6.06518 23.9723 -0.334582 15.7458 2.27472 1.06582e-09 1.12159e-09 -4.00914e-09 1.79359e-09 1.92972e-09 -6.94146e-09 1.06583e-09 1.12159e-09 -4.00916e-09 7.73091 5.47488 0.417314 1.06582e-09 1.12159e-09 -4.00914e-09 2.90554 0.965183 0.102902 1.06583e-09 1.12159e-09 -4.00914e-09 10.2786 0.731801 0.0259123 1.06582e-09 1.12159e-09 -4.00914e-09 2.22167 -0.733487 -0.20892 6.84156e-14 -7.44281e-14 -2.95537e-14 -91.9207 3.74399 0.458774 13.1817 -6.12168 -24.1352 1.37461 30.4388 -4.76721 -2.91908e-09 1.96659e-09 2.21582e-09 -4.99471e-09 3.41269e-09 3.8917e-09 -2.9191e-09 1.96659e-09 2.21583e-09 -7.73091 5.47488 -0.417314 -2.91909e-09 1.96658e-09 2.21582e-09 -2.90554 0.965183 -0.102902 -2.91909e-09 1.96659e-09 2.21582e-09 -10.2786 0.731801 -0.0259123 -2.91908e-09 1.96659e-09 2.21583e-09 -2.22167 -0.733487 0.20892 -2.03217e-16 0.0 -3.88251e-19 10.5612 -16.3113 1.19481 -0.0506437 18.4334 0.337369 -4.34803 -10.4936 -15.2993 2.03217e-16 0.0 3.88251e-19 10.4195 -30.1977 0.694725 0.35088 40.2293 -0.723876 2.14817 -9.14196 6.88401
246.044 82.6258 19.3868 -103.732 -84.4867 115.728 9.26238 -4.1189 1.3619 1.77694 0.853818 0.233525 -6.39757 -3.70401 0.0241066 8.99168 -8.78915 2.83805 -0.0 0.0 0.0 -0.0 0.0 0.0 8.90277e-14 -8.00182e-13 7.10966e-15 75.9706 25.3961 8.95255 -13.2273 -6.17685 24.2033 -0.316349 15.3742 2.21776 3.23136e-10 7.3735e-10 -3.06212e-09 5.21964e-10 1.26595e-09 -5.29502e-09 3.23146e-10 7.37357e-10 -3.06214e-09 7.73091 5.47488 0.417314 3.23137e-10 7.37353e-10 -3.06212e-09 2.90554 0.965183 0.102902 3.23142e-10 7.37354e-10 -3.06212e-09 10.2786 0.731801 0.0259123 3.23137e-10 7.37354e-10 -3.06212e-09 2.22167 -0.733487 -0.20892 8.9083e-14 -8.00182e-13 6.78974e-15 -91.2567 4.06091 0.374623 13.1719 -6.13466 -24.0939 1.32956 30.0803 -4.69537 -2.35202e-09 1.36375e-09 1.27141e-09 -4.03467e-09 2.37272e-09 2.2482e-09 -2.35204e-09 1.36375e-09 1.27142e-09 -7.73091 5.47488 -0.417314 -2.35203e-09 1.36374e-09 1.27141e-09 -2.90554 0.965183 -0.102902 -2.35203e-09 1.36375e-09 1.27141e-09 -10.2786 0.731801 -0.0259123 -2.35202e-09 1.36375e-09 1.27141e-09 -2.22167 -0.733487 0.20892 -2.03217e-16 0.0 -3.88251e-19 10.7013 -16.2931 1.19479 -0.0481702 18.6084 0.344076 -4.39525 -10.6744 -15.3377 2.03217e-16 0.0 3.88251e-19 10.6678 -31.0921 0.943208 0.381225 41.6488 -0.756683 2.02245 -8.4951 6.6235
245.964 82.5677 19.3222 -102.0 -84.4471 113.932 9.10383 -3.64644 1.34029 1.70826 0.807641 0.239433 -6.16353 -3.54871 0.0302009 8.6938 -8.76472 2.77367 -0.0 0.0 0.0 -0.0 0.0 0.0 9.87095e-14 -1.38697e-12 3.88418e-14 73.0655 25.1433 8.64608 -13.0776 -6.16947 23.7892 -0.271727 14.5203 2.08701 -3.9237e-10 3.21776e-10 -1.94529e-09 -7.00695e-10 5.48597e-10 -3.35543e-09 -3.92359e-10 3.21785e-10 -1.94531e-09 7.73091 5.47488 0.417314 -3.92369e-10 3.2178e-10 -1.94529e-09 2.90554 0.965183 0.102902 -3.92366e-10 3.21782e-10 -1.9453e-09 10.2786 0.731801 0.0259123 -3.92368e-10 3.21782e-10 -1.94529e-09 2.22167 -0.733487 -0.20892 9.88121e-14 -1.38698e-12 3.8471e-14 -87.9029 4.32388 0.276669 12.8662 -6.01233 -23.3706 1.16517 28.807 -4.44154 -1.65195e-09 7.09282e-10 3.13714e-10 -2.84533e-09 1.24209e-09 5.78721e-10 -1.65197e-09 7.09285e-10 3.13722e-10 -7.73091 5.47488 -0.417314 -1.65195e-09 7.09282e-10 3.13714e-10 -2.90554 0.965183 -0.102902 -1.65196e-09 7.09282e-10 3.13714e-10 -10.2786 0.731801 -0.0259123 -1.65195e-09 7.09286e-10 3.13711e-10 -2.22167 -0.733487 0.20892 -2.03217e-16 0.0 -3.88251e-19 10.554 -15.8598 1.14562 -0.0398964 18.2354 0.338725 -4.22601 -10.5019 -14.9111 2.03217e-16 0.0 3.88251e-19 10.6224 -31.3561 1.20673 0.385649 42.1457 -0.760419 1.82867 -7.52795 6.17139
